<svg xmlns="http://www.w3.org/2000/svg" xmlns:xlink="http://www.w3.org/1999/xlink" width="512" zoomAndPan="magnify" viewBox="0 0 384 383.999986" height="512" preserveAspectRatio="xMidYMid meet" version="1.0"><defs><clipPath id="58e2ebcc11"><path d="M 0 38.398438 L 384 38.398438 L 384 208.648438 L 0 208.648438 Z M 0 38.398438 " clip-rule="nonzero"/></clipPath><clipPath id="8efb2a38b1"><path d="M 228 151 L 233.585938 151 L 233.585938 162 L 228 162 Z M 228 151 " clip-rule="nonzero"/></clipPath><clipPath id="28a7f35e1f"><path d="M 172 198 L 178 198 L 178 208.417969 L 172 208.417969 Z M 172 198 " clip-rule="nonzero"/></clipPath><clipPath id="b52d40ba18"><path d="M 132.335938 154 L 139 154 L 139 166 L 132.335938 166 Z M 132.335938 154 " clip-rule="nonzero"/></clipPath><clipPath id="1f27cbe5c4"><path d="M 187 108.667969 L 195 108.667969 L 195 115 L 187 115 Z M 187 108.667969 " clip-rule="nonzero"/></clipPath><clipPath id="0f21b59922"><path d="M 9.058594 213 L 357 213 L 357 290 L 9.058594 290 Z M 9.058594 213 " clip-rule="nonzero"/></clipPath><clipPath id="cefb2214d3"><path d="M 32 253 L 166 253 L 166 342.019531 L 32 342.019531 Z M 32 253 " clip-rule="nonzero"/></clipPath><clipPath id="02c6198c0f"><path d="M 200 253 L 334 253 L 334 342.019531 L 200 342.019531 Z M 200 253 " clip-rule="nonzero"/></clipPath></defs><g clip-path="url(#58e2ebcc11)"><path fill="#f8c91f" d="M 388.414062 276.636719 L 387.753906 260.3125 L 387.136719 243.988281 L 386.53125 227.652344 L 386.003906 211.328125 L 388.414062 213.742188 L 367.878906 214.402344 L 364.925781 214.5 L 364.804688 211.328125 C 364.71875 208.121094 364.207031 204.984375 363.261719 201.921875 C 362.300781 198.96875 360.691406 196.425781 358.433594 194.292969 C 356.101562 192.175781 353.433594 190.632812 350.4375 189.664062 C 348.914062 189.152344 347.363281 188.765625 345.78125 188.507812 C 344.984375 188.386719 344.183594 188.273438 343.386719 188.210938 C 342.988281 188.175781 342.589844 188.148438 342.195312 188.136719 C 342 188.136719 341.808594 188.136719 341.613281 188.136719 L 338.25 188.136719 L 337.90625 185.402344 C 337.179688 179.273438 335.507812 173.414062 332.890625 167.820312 C 332.558594 167.140625 332.179688 166.488281 331.832031 165.8125 L 331.296875 164.8125 L 330.6875 163.851562 C 330.28125 163.222656 329.902344 162.558594 329.46875 161.945312 L 328.132812 160.121094 C 326.273438 157.730469 324.199219 155.542969 321.914062 153.550781 C 317.203125 149.585938 311.953125 146.554688 306.160156 144.457031 C 303.261719 143.390625 300.300781 142.542969 297.277344 141.910156 C 295.765625 141.601562 294.246094 141.328125 292.726562 141.132812 C 291.96875 141.03125 291.203125 140.941406 290.449219 140.875 C 290.070312 140.835938 289.695312 140.8125 289.320312 140.789062 C 288.941406 140.761719 288.550781 140.742188 288.269531 140.738281 L 285.195312 140.671875 L 285.195312 118.136719 L 288.308594 121.246094 L 262.917969 121.246094 L 262.617188 118.480469 C 262.429688 116.503906 262.050781 114.5625 261.488281 112.65625 C 261.199219 111.761719 260.851562 110.890625 260.449219 110.039062 C 260.03125 109.203125 259.558594 108.398438 259.03125 107.628906 C 256.878906 104.546875 253.757812 102.011719 250.238281 99.964844 C 248.453125 98.929688 246.613281 98 244.726562 97.171875 C 242.808594 96.34375 240.851562 95.585938 238.855469 94.894531 C 237.855469 94.550781 236.84375 94.234375 235.835938 93.910156 C 234.828125 93.585938 233.804688 93.292969 232.773438 93.019531 C 231.742188 92.75 230.722656 92.449219 229.664062 92.199219 C 228.609375 91.949219 227.621094 91.695312 226.488281 91.394531 C 222.023438 90.273438 217.730469 88.691406 213.605469 86.652344 C 211.535156 85.605469 209.535156 84.4375 207.613281 83.140625 C 206.636719 82.515625 205.71875 81.808594 204.78125 81.101562 C 203.84375 80.394531 202.964844 79.648438 202.117188 78.855469 C 198.613281 75.714844 195.636719 72.136719 193.195312 68.117188 C 191.976562 66.113281 190.914062 64.027344 190.011719 61.859375 C 189.5625 60.777344 189.15625 59.671875 188.789062 58.542969 C 188.613281 57.972656 188.441406 57.402344 188.285156 56.8125 C 188.210938 56.519531 188.136719 56.226562 188.070312 55.925781 L 187.96875 55.480469 L 187.917969 55.238281 L 187.863281 54.945312 L 194.003906 54.945312 L 193.953125 55.238281 L 193.902344 55.480469 L 193.800781 55.925781 C 193.734375 56.226562 193.65625 56.519531 193.582031 56.8125 C 193.425781 57.402344 193.257812 57.972656 193.078125 58.542969 C 192.714844 59.671875 192.308594 60.765625 191.859375 61.859375 C 190.957031 64.027344 189.894531 66.113281 188.671875 68.117188 C 186.234375 72.125 183.265625 75.695312 179.765625 78.828125 C 178.914062 79.621094 177.988281 80.335938 177.101562 81.074219 C 176.210938 81.8125 175.253906 82.488281 174.273438 83.113281 C 172.351562 84.410156 170.355469 85.578125 168.28125 86.625 C 164.15625 88.664062 159.863281 90.246094 155.398438 91.367188 C 154.265625 91.671875 153.265625 91.914062 152.222656 92.171875 C 151.179688 92.429688 150.160156 92.722656 149.113281 92.996094 C 148.0625 93.265625 147.070312 93.59375 146.046875 93.882812 C 145.027344 94.171875 144.027344 94.523438 143.03125 94.871094 C 141.03125 95.558594 139.074219 96.316406 137.164062 97.144531 C 135.273438 97.972656 133.433594 98.90625 131.644531 99.9375 C 128.128906 101.984375 125.007812 104.519531 122.855469 107.601562 C 121.78125 109.152344 120.960938 110.828125 120.402344 112.628906 C 119.832031 114.535156 119.457031 116.476562 119.273438 118.453125 L 118.96875 121.21875 L 93.53125 121.21875 L 96.640625 118.109375 L 96.640625 140.636719 L 93.566406 140.703125 C 93.289062 140.703125 92.875 140.730469 92.519531 140.75 C 92.164062 140.773438 91.769531 140.800781 91.390625 140.839844 C 90.636719 140.90625 89.871094 140.996094 89.113281 141.097656 C 87.585938 141.292969 86.070312 141.566406 84.5625 141.875 C 81.539062 142.507812 78.578125 143.355469 75.675781 144.421875 C 69.886719 146.519531 64.636719 149.550781 59.925781 153.515625 C 57.640625 155.507812 55.566406 157.695312 53.703125 160.085938 L 52.371094 161.910156 C 51.925781 162.523438 51.558594 163.1875 51.144531 163.816406 L 50.5625 164.804688 L 50.03125 165.804688 C 49.679688 166.472656 49.300781 167.136719 48.96875 167.8125 C 46.355469 173.402344 44.683594 179.265625 43.953125 185.394531 L 43.609375 188.128906 L 40.25 188.128906 C 40.050781 188.128906 39.863281 188.128906 39.660156 188.128906 C 39.269531 188.128906 38.871094 188.167969 38.476562 188.203125 C 37.675781 188.265625 36.875 188.375 36.082031 188.5 C 34.496094 188.757812 32.945312 189.144531 31.425781 189.65625 C 28.425781 190.621094 25.761719 192.164062 23.429688 194.285156 C 21.179688 196.425781 19.578125 198.972656 18.625 201.929688 C 17.675781 204.996094 17.152344 208.132812 17.050781 211.339844 L 16.921875 214.449219 L 14.015625 214.355469 L -6.519531 213.710938 L -4.144531 211.339844 L -4.679688 227.652344 L -5.261719 243.988281 L -5.855469 260.3125 L -6.519531 276.636719 L -7.191406 260.3125 L -7.78125 243.988281 L -8.363281 227.652344 L -8.890625 211.339844 L -8.964844 209.046875 L -6.519531 208.96875 L 14.015625 208.308594 L 10.984375 211.339844 C 10.804688 207.402344 11.363281 203.570312 12.664062 199.847656 C 14.039062 195.964844 16.214844 192.601562 19.191406 189.757812 C 22.175781 187.027344 25.589844 185.03125 29.433594 183.769531 C 31.277344 183.148438 33.160156 182.683594 35.082031 182.371094 C 36.035156 182.21875 36.992188 182.089844 37.960938 182.015625 C 38.445312 181.972656 38.929688 181.9375 39.421875 181.921875 C 39.667969 181.921875 39.917969 181.921875 40.167969 181.898438 C 40.417969 181.875 40.648438 181.898438 40.996094 181.898438 L 37.785156 184.625 C 38.601562 177.808594 40.464844 171.292969 43.378906 165.078125 C 43.757812 164.3125 44.183594 163.558594 44.582031 162.800781 L 45.191406 161.664062 L 45.882812 160.570312 C 46.347656 159.847656 46.769531 159.105469 47.277344 158.398438 L 48.800781 156.3125 C 50.921875 153.589844 53.289062 151.09375 55.894531 148.824219 C 61.171875 144.371094 67.054688 140.964844 73.546875 138.605469 C 76.734375 137.433594 79.992188 136.5 83.320312 135.808594 C 84.972656 135.464844 86.636719 135.167969 88.320312 134.949219 C 89.160156 134.835938 90.007812 134.738281 90.863281 134.664062 C 91.285156 134.621094 91.71875 134.59375 92.148438 134.5625 C 92.582031 134.53125 92.996094 134.515625 93.523438 134.5 L 90.449219 137.609375 L 90.449219 115.023438 L 116.214844 115.023438 L 113.105469 117.792969 C 113.335938 115.410156 113.792969 113.074219 114.484375 110.78125 C 114.863281 109.59375 115.324219 108.4375 115.863281 107.3125 C 116.417969 106.191406 117.050781 105.113281 117.761719 104.082031 C 119.183594 102.074219 120.832031 100.273438 122.710938 98.679688 C 124.511719 97.148438 126.4375 95.789062 128.484375 94.601562 C 130.484375 93.453125 132.539062 92.414062 134.652344 91.492188 C 136.75 90.605469 138.863281 89.785156 140.996094 89.035156 C 142.0625 88.664062 143.132812 88.328125 144.203125 87.984375 C 145.273438 87.636719 146.347656 87.335938 147.429688 87.042969 C 148.507812 86.75 149.582031 86.441406 150.667969 86.179688 C 151.75 85.917969 152.863281 85.640625 153.839844 85.378906 C 157.871094 84.367188 161.75 82.941406 165.480469 81.105469 C 167.3125 80.179688 169.082031 79.144531 170.785156 77.996094 C 171.644531 77.445312 172.445312 76.808594 173.269531 76.21875 C 174.097656 75.628906 174.867188 74.949219 175.609375 74.25 C 178.667969 71.515625 181.265625 68.390625 183.394531 64.878906 C 184.449219 63.144531 185.367188 61.34375 186.148438 59.472656 C 186.53125 58.539062 186.882812 57.597656 187.183594 56.644531 C 187.335938 56.171875 187.480469 55.699219 187.601562 55.226562 C 187.660156 54.992188 187.722656 54.757812 187.773438 54.53125 L 187.847656 54.191406 L 187.902344 53.925781 L 190.949219 38.398438 L 194.019531 53.949219 L 194.070312 54.214844 L 194.148438 54.554688 C 194.195312 54.78125 194.257812 54.996094 194.316406 55.25 C 194.441406 55.722656 194.582031 56.191406 194.734375 56.667969 C 195.035156 57.617188 195.386719 58.558594 195.769531 59.492188 C 196.550781 61.363281 197.46875 63.167969 198.523438 64.898438 C 200.648438 68.394531 203.238281 71.503906 206.289062 74.230469 C 207.03125 74.925781 207.84375 75.5625 208.625 76.195312 C 209.40625 76.832031 210.25 77.4375 211.113281 77.972656 C 212.816406 79.121094 214.582031 80.160156 216.417969 81.085938 C 220.144531 82.917969 224.027344 84.34375 228.058594 85.359375 C 229.035156 85.621094 230.15625 85.890625 231.230469 86.15625 C 232.300781 86.425781 233.386719 86.730469 234.46875 87.019531 C 235.546875 87.308594 236.617188 87.648438 237.691406 87.960938 C 238.769531 88.273438 239.835938 88.640625 240.898438 89.015625 C 243.03125 89.75 245.148438 90.566406 247.246094 91.46875 C 249.355469 92.390625 251.410156 93.429688 253.40625 94.582031 C 255.464844 95.765625 257.398438 97.125 259.207031 98.660156 C 261.085938 100.25 262.738281 102.050781 264.15625 104.0625 C 264.867188 105.089844 265.5 106.167969 266.054688 107.289062 C 266.59375 108.414062 267.054688 109.570312 267.4375 110.761719 C 268.125 113.050781 268.582031 115.390625 268.8125 117.769531 L 265.703125 115.003906 L 291.46875 115.003906 L 291.46875 137.597656 L 288.394531 134.488281 C 288.925781 134.488281 289.320312 134.523438 289.769531 134.550781 C 290.21875 134.578125 290.632812 134.609375 291.054688 134.652344 C 291.910156 134.726562 292.753906 134.820312 293.597656 134.9375 C 295.28125 135.152344 296.949219 135.453125 298.601562 135.792969 C 301.925781 136.488281 305.183594 137.421875 308.375 138.59375 C 314.863281 140.953125 320.746094 144.359375 326.023438 148.8125 C 328.636719 151.082031 331.003906 153.582031 333.132812 156.308594 L 334.65625 158.394531 C 335.152344 159.097656 335.585938 159.839844 336.050781 160.566406 L 336.738281 161.660156 L 337.347656 162.796875 C 337.746094 163.554688 338.175781 164.304688 338.550781 165.074219 C 341.46875 171.289062 343.332031 177.804688 344.144531 184.621094 L 340.902344 181.894531 C 341.25 181.894531 341.460938 181.894531 341.726562 181.894531 C 341.996094 181.894531 342.230469 181.894531 342.476562 181.917969 C 342.96875 181.917969 343.453125 181.96875 343.9375 182.011719 C 344.90625 182.085938 345.859375 182.214844 346.816406 182.363281 C 348.734375 182.679688 350.617188 183.144531 352.460938 183.765625 C 356.304688 185.027344 359.71875 187.023438 362.707031 189.753906 C 365.6875 192.59375 367.863281 195.957031 369.242188 199.835938 L 369.714844 201.253906 C 369.871094 201.730469 369.964844 202.210938 370.09375 202.691406 C 370.332031 203.640625 370.519531 204.601562 370.652344 205.574219 C 370.738281 206.058594 370.773438 206.542969 370.8125 207.019531 L 370.925781 208.464844 C 370.960938 209.425781 370.953125 210.378906 370.953125 211.335938 L 367.878906 208.261719 L 388.414062 208.921875 L 390.902344 209.003906 L 390.828125 211.335938 L 390.304688 227.652344 L 389.707031 243.972656 L 389.085938 260.3125 Z M 388.414062 276.636719 " fill-opacity="1" fill-rule="nonzero"/></g><path fill="#11324d" d="M 225.039062 132.546875 L 224.914062 132.621094 C 224.34375 132.972656 224.003906 133.359375 223.898438 133.789062 C 223.738281 134.207031 223.667969 135.03125 223.699219 136.261719 C 223.710938 136.714844 223.726562 137.175781 223.75 137.644531 L 224.796875 158.773438 C 225.191406 163.941406 225.464844 167.96875 225.609375 170.859375 C 225.703125 172.878906 225.75 174.058594 225.75 174.394531 C 225.78125 175.324219 225.804688 177.097656 225.820312 179.722656 L 225.855469 180.871094 C 225.875 181.191406 225.898438 181.433594 225.933594 181.605469 C 225.953125 181.78125 226.019531 181.863281 226.128906 181.847656 C 226.394531 181.855469 227.261719 179.042969 228.730469 173.410156 L 227.421875 143.976562 C 227.449219 142.5625 227.546875 141.855469 227.710938 141.855469 C 227.773438 141.710938 228.132812 142.128906 228.789062 143.105469 C 228.929688 143.222656 229.027344 143.199219 229.085938 143.042969 C 229.214844 142.855469 229.253906 141.765625 229.203125 139.773438 L 225.039062 132.546875 " fill-opacity="1" fill-rule="nonzero"/><g clip-path="url(#8efb2a38b1)"><path fill="#11324d" d="M 233.625 152.46875 L 233.644531 152.410156 C 233.722656 152.195312 233.730469 151.996094 233.664062 151.820312 C 233.542969 151.542969 233.390625 151.371094 233.210938 151.316406 C 232.945312 151.191406 232.582031 151.34375 232.121094 151.769531 C 231.535156 152.394531 230.980469 153.183594 230.464844 154.140625 C 230.035156 154.960938 229.789062 155.460938 229.726562 155.644531 C 229.578125 155.988281 229.445312 156.332031 229.328125 156.675781 C 228.980469 157.714844 228.824219 158.628906 228.855469 159.417969 C 228.886719 160.207031 229.085938 160.757812 229.445312 161.070312 C 229.757812 161.324219 230.199219 161.355469 230.777344 161.160156 C 231.351562 160.976562 232.183594 160.535156 233.277344 159.839844 L 233.671875 157.46875 C 232.597656 158.042969 231.875 158.3125 231.507812 158.285156 C 231.308594 158.265625 231.167969 158.191406 231.085938 158.050781 C 231.042969 157.980469 231.007812 157.902344 230.984375 157.808594 C 230.960938 157.773438 230.949219 157.613281 230.953125 157.324219 C 231.015625 156.6875 231.269531 155.976562 231.71875 155.1875 C 231.980469 154.722656 232.257812 154.25 232.554688 153.769531 L 233.625 152.46875 " fill-opacity="1" fill-rule="nonzero"/></g><path fill="#11324d" d="M 212.003906 175.09375 L 212.132812 175.101562 C 212.351562 175.15625 212.480469 175.214844 212.535156 175.25 C 212.621094 175.308594 212.722656 175.363281 212.816406 175.445312 C 213.167969 175.738281 213.410156 176.03125 213.558594 176.320312 C 213.664062 176.53125 213.738281 176.757812 213.769531 177.007812 C 213.820312 177.414062 213.800781 177.75 213.753906 178.023438 C 213.679688 178.417969 213.640625 178.632812 213.632812 178.671875 C 213.527344 179.078125 213.457031 179.328125 213.417969 179.425781 C 213.261719 179.785156 213.101562 180.042969 212.953125 180.21875 C 212.910156 180.273438 212.777344 180.417969 212.519531 180.625 C 212.414062 180.707031 212.292969 180.773438 212.167969 180.835938 C 211.882812 180.984375 211.574219 181.078125 211.242188 181.050781 C 210.984375 181.03125 210.820312 180.929688 210.734375 180.820312 C 210.574219 180.613281 210.46875 180.429688 210.414062 180.253906 C 210.324219 179.96875 210.246094 179.636719 210.203125 179.257812 C 210.175781 179 210.167969 178.835938 210.167969 178.757812 C 210.167969 178.488281 210.179688 178.253906 210.210938 178.058594 C 210.300781 177.433594 210.566406 176.714844 211.050781 175.941406 C 211.433594 175.328125 211.769531 175.058594 212.003906 175.09375 M 218.554688 125.046875 L 218.109375 125.175781 C 216.992188 125.582031 216.417969 126.523438 216.527344 128 C 218.421875 153.65625 219.765625 172.515625 220.417969 184.59375 L 218.183594 186.898438 C 216.128906 188.328125 214.097656 187.96875 212.089844 185.824219 C 211.976562 185.492188 212.070312 185.128906 212.378906 184.738281 C 213.597656 183.878906 214.9375 182.640625 215.914062 180.75 C 216.777344 179.085938 216.914062 177.53125 216.746094 176.324219 C 216.425781 174 215.792969 172.371094 214.746094 171.6875 C 213.574219 170.921875 212.472656 170.910156 211.621094 171.375 C 209.992188 172.265625 208.914062 173.402344 208.425781 174.792969 C 208.066406 175.8125 207.875 176.890625 207.804688 178.015625 L 207.9375 181.636719 L 208.113281 182.570312 C 208.105469 182.945312 208.011719 183.21875 207.871094 183.410156 C 207.621094 183.75 207.035156 184.140625 206.078125 184.558594 L 199.300781 187.136719 C 198.453125 187.539062 197.625 188.042969 196.816406 188.648438 L 194.394531 190.988281 C 192.636719 193.53125 190.179688 196.460938 187.0625 199.800781 C 185.71875 201.238281 184.503906 201.988281 183.386719 202.015625 C 180.964844 200.957031 180.421875 197.507812 181.757812 191.664062 C 185.929688 188.222656 188.046875 185.542969 188.082031 183.621094 C 188.101562 182.546875 187.863281 181.25 187.394531 179.726562 L 185.128906 174.019531 C 185.113281 173.777344 185.222656 173.621094 185.460938 173.550781 L 187.609375 173.902344 C 187.832031 173.882812 187.917969 173.78125 187.859375 173.601562 C 186.117188 170.984375 184.585938 169.074219 183.332031 167.816406 C 182.191406 166.675781 181.511719 168.339844 181.230469 172.867188 L 185.261719 180.699219 C 185.785156 182.261719 185.84375 183.292969 185.4375 183.800781 C 185.226562 184.800781 183.378906 186.472656 179.78125 188.628906 C 176.476562 190.605469 173.933594 191.632812 172.367188 192.210938 C 165.675781 194.679688 160.84375 194.804688 157.589844 192.511719 C 156.089844 191.457031 154.859375 189.953125 153.972656 187.804688 C 153.625 186.957031 153.558594 183.78125 153.859375 178.246094 L 151.761719 179.03125 C 149.6875 189.429688 150.71875 195.816406 154.808594 198.253906 C 157.847656 200.066406 161.09375 200.753906 164.601562 200.277344 C 167.730469 199.851562 172.320312 197.765625 178.359375 193.996094 C 178.03125 197.6875 178.015625 199.703125 178.324219 200.035156 C 178.550781 201.125 178.933594 202.042969 179.46875 202.796875 C 180.007812 203.546875 180.699219 204.125 181.550781 204.539062 L 182.941406 205.03125 C 184.292969 205.320312 185.105469 205.347656 185.378906 205.113281 C 186.355469 204.871094 187.460938 204.085938 188.804688 202.875 C 189.238281 202.480469 191.929688 199.203125 196.765625 192.917969 C 197.09375 192.492188 197.730469 192.035156 198.675781 191.542969 L 209.636719 186.746094 C 210.378906 190.4375 212.714844 192.273438 216.488281 191.414062 C 218.808594 190.882812 220.492188 188.585938 221.886719 185.386719 C 222.011719 185.109375 222.335938 184.171875 222.761719 182.519531 L 220.417969 133.527344 C 221.609375 134.972656 222.15625 134.71875 222.023438 132.769531 C 221.992188 132.335938 221.921875 131.875 221.679688 131.460938 C 220.007812 128.601562 218.914062 126.496094 218.554688 125.046875 Z M 218.554688 125.046875 " fill-opacity="1" fill-rule="nonzero"/><path fill="#11324d" d="M 211.445312 126.980469 L 211.558594 127.136719 C 212.164062 127.992188 212.570312 128.347656 212.773438 128.195312 C 212.921875 128.078125 213.015625 127.804688 213.054688 127.378906 C 213.089844 126.726562 213.066406 126.222656 212.984375 125.867188 C 212.902344 125.476562 212.785156 125.101562 212.621094 124.753906 L 211.199219 121.921875 C 211.0625 121.675781 210.695312 120.789062 210.097656 119.265625 L 209.722656 118.515625 C 209.371094 117.925781 208.992188 117.78125 208.589844 118.085938 C 207.953125 118.617188 207.605469 119.273438 207.550781 120.058594 C 207.550781 120.453125 207.699219 120.898438 207.988281 121.394531 C 208.734375 137.210938 209.28125 148.210938 209.632812 154.394531 C 209.914062 159.535156 210.152344 162.257812 210.347656 162.566406 C 210.386719 162.617188 210.433594 162.582031 210.492188 162.453125 C 211.144531 160.640625 211.617188 159.242188 211.910156 158.261719 C 212.242188 157.09375 212.457031 156.03125 212.546875 155.066406 L 211.386719 137.332031 L 211.207031 133.007812 C 211.09375 130.003906 211.058594 128.304688 211.097656 127.910156 C 211.121094 127.054688 211.238281 126.746094 211.445312 126.980469 " fill-opacity="1" fill-rule="nonzero"/><path fill="#11324d" d="M 191.558594 141.148438 L 191.6875 141.300781 C 192.371094 142.144531 192.839844 142.496094 193.09375 142.355469 C 193.367188 142.308594 193.625 141.582031 193.871094 140.183594 C 193.390625 139.441406 192.441406 137.636719 191.03125 134.757812 C 190.726562 134.183594 190.425781 133.691406 190.136719 133.285156 C 189.601562 132.53125 189.121094 132.34375 188.695312 132.714844 C 188.496094 132.828125 188.152344 133.324219 187.664062 134.207031 C 187.457031 134.628906 187.351562 135.058594 187.34375 135.492188 C 187.328125 136.039062 187.402344 136.828125 187.566406 137.859375 C 188.503906 161.574219 189.160156 176.054688 189.535156 181.3125 C 189.816406 185.578125 190.03125 188.175781 190.179688 189.109375 C 190.328125 190.460938 190.53125 191.394531 190.789062 191.902344 C 190.929688 192.1875 191.121094 192.023438 191.367188 191.417969 C 192.132812 188.46875 192.878906 185.964844 193.609375 183.914062 L 191.558594 141.148438 " fill-opacity="1" fill-rule="nonzero"/><path fill="#11324d" d="M 212.753906 163.425781 L 212.042969 164.402344 L 209.304688 163.5625 L 206.75 166.90625 L 210.742188 169.644531 L 212.683594 166.953125 L 215.1875 168.339844 L 218.039062 164.476562 L 214 161.898438 L 212.753906 163.425781 " fill-opacity="1" fill-rule="nonzero"/><path fill="#11324d" d="M 199.3125 196.8125 L 199.523438 196.847656 C 200.808594 197.046875 201.660156 197.402344 202.078125 197.917969 C 202.214844 198.046875 202.425781 198.335938 202.707031 198.785156 L 204.175781 201.496094 C 204.519531 202.03125 204.761719 202.34375 204.902344 202.433594 C 205.277344 202.785156 205.769531 202.78125 206.382812 202.421875 C 206.4375 202.394531 206.492188 202.363281 206.546875 202.332031 C 206.816406 201.179688 206.976562 200.410156 207.027344 200.023438 C 207.089844 199.640625 207.132812 199.253906 207.160156 198.867188 L 207.222656 196.738281 C 207.230469 196.460938 207.285156 196.21875 207.390625 196.003906 C 207.550781 195.742188 207.828125 195.699219 208.214844 195.871094 C 208.410156 195.96875 208.578125 196.089844 208.71875 196.226562 L 209.527344 197.117188 C 209.625 197.191406 209.734375 197.222656 209.851562 197.210938 C 210.015625 197.1875 210.210938 197.082031 210.449219 196.894531 C 210.625 196.320312 210.738281 195.910156 210.789062 195.671875 C 211.03125 194.621094 210.976562 193.816406 210.628906 193.253906 C 210.132812 192.457031 209.546875 192.011719 208.867188 191.914062 C 207.921875 191.75 207.136719 192.070312 206.503906 192.871094 C 206.273438 193.171875 206.058594 193.488281 205.851562 193.824219 C 205.71875 195.421875 205.453125 196.300781 205.054688 196.460938 C 204.945312 196.476562 204.84375 196.433594 204.75 196.328125 C 204.164062 195.492188 203.78125 195.015625 203.59375 194.902344 C 203.253906 194.613281 202.855469 194.371094 202.402344 194.171875 C 201.089844 193.613281 200.058594 193.523438 199.3125 193.90625 C 199 194.070312 198.746094 194.292969 198.542969 194.574219 C 198.257812 195.007812 198.128906 195.339844 198.152344 195.570312 C 198.160156 195.835938 198.261719 196.058594 198.460938 196.242188 C 198.617188 196.398438 198.902344 196.589844 199.3125 196.8125 " fill-opacity="1" fill-rule="nonzero"/><path fill="#11324d" d="M 201.898438 122.957031 L 202.140625 123.136719 C 203.355469 124.410156 203.921875 123.734375 203.832031 121.109375 C 202.890625 119.484375 201.765625 117.324219 200.449219 114.628906 C 199.425781 113.050781 198.671875 113.746094 198.1875 116.714844 C 198.109375 117.441406 198.132812 118.675781 198.25 120.410156 C 200.074219 140.886719 201.074219 154.355469 201.253906 160.828125 C 201.316406 161.992188 201.195312 162.835938 200.890625 163.363281 C 200.355469 163.933594 199.542969 164.335938 198.449219 164.570312 C 197.164062 164.917969 195.492188 164.390625 193.429688 162.988281 C 188.289062 159.601562 174.3125 150.632812 151.496094 136.085938 C 150.714844 135.539062 150.355469 135.144531 150.421875 134.90625 C 150.003906 134.410156 151.664062 133.335938 155.398438 131.691406 C 164.40625 127.945312 170.765625 125.4375 174.472656 124.171875 C 181.476562 121.710938 186.402344 120.726562 189.253906 121.214844 C 191.769531 121.691406 192.539062 123.085938 191.558594 125.394531 C 191.144531 126.207031 190.578125 126.902344 189.863281 127.472656 L 185.804688 130.171875 C 185.265625 130.566406 184.734375 131.097656 184.199219 131.765625 C 183.203125 133.089844 182.203125 134.691406 181.191406 136.574219 C 180.03125 138.683594 179.640625 139.640625 180.019531 139.433594 C 184.59375 134.550781 188.929688 130.449219 193.03125 127.125 C 193.554688 126.621094 194.007812 126.085938 194.394531 125.523438 C 195.996094 122.59375 195.71875 119.972656 193.5625 117.667969 C 192.277344 115.804688 185.324219 116.789062 172.699219 120.621094 C 159.347656 124.738281 150.941406 128.351562 147.484375 131.457031 C 146.871094 132.011719 146.296875 132.96875 145.765625 134.332031 C 145.679688 134.863281 145.851562 135.359375 146.277344 135.824219 C 147.257812 136.898438 148.414062 137.902344 149.75 138.835938 L 161.546875 147.335938 C 163.691406 148.960938 165.605469 150.570312 167.28125 152.15625 C 171.386719 156.015625 173.597656 159.503906 173.914062 162.625 C 173.796875 163.820312 173.15625 164.65625 171.984375 165.125 C 171.839844 165.238281 171.203125 165.441406 170.074219 165.742188 C 166.335938 166.414062 164.039062 166.898438 163.175781 167.195312 C 161.300781 167.8125 159.945312 168.394531 159.113281 168.949219 C 158.007812 169.609375 156.894531 170.425781 155.773438 171.394531 C 151.613281 175.242188 149.203125 177.386719 148.535156 177.832031 C 147.09375 178.976562 145.628906 179.683594 144.136719 179.949219 C 142.675781 180.109375 141.839844 179.304688 141.625 177.535156 C 141.472656 173.714844 142.253906 170.101562 143.972656 166.699219 L 142.074219 165.730469 C 140.070312 170.445312 139.054688 173.878906 139.027344 176.03125 C 139.074219 179.65625 139.894531 182.015625 141.492188 183.113281 C 143.078125 184.359375 145.328125 184.328125 148.25 183.027344 C 148.914062 182.769531 149.957031 182.074219 151.378906 180.941406 C 151.847656 180.597656 153.683594 178.824219 156.886719 175.621094 C 157.933594 174.667969 159.03125 173.851562 160.183594 173.171875 C 161.574219 172.421875 162.632812 171.945312 163.367188 171.746094 L 170.589844 169.820312 C 171.296875 169.640625 172.109375 169.191406 173.023438 168.464844 C 173.714844 167.988281 174.535156 166.546875 175.488281 164.144531 C 176.046875 162.867188 176.304688 161.796875 176.265625 160.941406 C 176.265625 160.269531 176.105469 159.542969 175.789062 158.757812 C 175.382812 157.792969 174.625 156.410156 173.515625 154.609375 C 173.292969 154.144531 173.246094 153.933594 173.382812 153.972656 C 173.746094 154 174.566406 154.488281 175.84375 155.441406 L 187.980469 164.527344 C 190.109375 166.03125 191.992188 167.152344 193.632812 167.886719 C 195.109375 168.5625 196.558594 168.804688 197.972656 168.617188 C 200.316406 168.117188 201.933594 167.375 202.816406 166.398438 C 204.089844 165.269531 204.628906 162.503906 204.429688 158.101562 L 201.898438 122.957031 " fill-opacity="1" fill-rule="nonzero"/><path fill="#11324d" d="M 172.265625 130.835938 L 172.257812 131.300781 C 172.226562 133.476562 172.316406 135.046875 172.523438 136.015625 L 174.023438 141.585938 C 174.117188 142.109375 173.988281 142.542969 173.640625 142.878906 C 171.167969 143.410156 168.09375 144.933594 164.414062 147.453125 C 161.832031 149.179688 159.972656 150.523438 158.828125 151.488281 C 158.328125 151.859375 156.253906 153.691406 152.609375 156.980469 C 151.707031 157.75 150.75 158.507812 149.738281 159.257812 C 146.816406 161.367188 144.78125 162.402344 143.640625 162.363281 C 142.21875 162.417969 141.730469 160.835938 142.171875 157.621094 C 142.464844 155.847656 142.882812 154.308594 143.421875 153.003906 C 143.695312 152.335938 144 151.667969 144.339844 151 C 146.398438 147.238281 147.316406 145.453125 147.09375 145.652344 C 147.3125 144.996094 147.136719 144.816406 146.570312 145.113281 C 144.394531 146.578125 142.597656 148.804688 141.179688 151.800781 C 139.484375 155.578125 138.597656 159.058594 138.515625 162.238281 C 138.613281 164.472656 139.203125 165.882812 140.289062 166.46875 C 141.882812 167.4375 143.722656 167.574219 145.8125 166.882812 C 147.308594 166.367188 148.835938 165.507812 150.386719 164.308594 C 151.160156 163.71875 151.945312 163.0625 152.738281 162.347656 L 153.34375 161.796875 C 157.734375 157.609375 160.804688 154.820312 162.5625 153.425781 C 165.5625 150.996094 167.878906 149.367188 169.511719 148.542969 C 171.453125 147.472656 173.28125 146.945312 175 146.960938 C 176.410156 146.890625 178.535156 147.429688 181.378906 148.574219 C 181.816406 148.667969 182.136719 148.613281 182.339844 148.414062 C 182.957031 147.542969 183.089844 146.351562 182.738281 144.847656 C 178.867188 143.230469 176.5 141.082031 175.625 138.402344 C 175.011719 136.5625 174.671875 134.410156 174.613281 131.953125 C 176.625 132.847656 177.28125 132.78125 176.589844 131.746094 L 173.34375 126.882812 C 172.980469 126.34375 172.71875 126.066406 172.566406 126.050781 C 172.042969 126.214844 171.429688 127.609375 170.726562 130.230469 C 170.714844 130.464844 170.765625 130.601562 170.878906 130.640625 C 170.902344 130.683594 171.363281 130.746094 172.265625 130.835938 " fill-opacity="1" fill-rule="nonzero"/><path fill="#11324d" d="M 160.65625 158.328125 L 157.871094 162.234375 L 162.1875 165.011719 L 164.125 161.898438 L 167.382812 163.417969 L 169.441406 159.324219 L 165.691406 157.105469 L 163.59375 159.972656 L 160.65625 158.328125 " fill-opacity="1" fill-rule="nonzero"/><path fill="#11324d" d="M 170.695312 178.34375 L 169.222656 180.144531 L 167.746094 181.945312 C 169.042969 182.949219 170.339844 183.957031 171.636719 184.960938 C 172.578125 183.609375 173.519531 182.257812 174.457031 180.90625 L 170.695312 178.34375 " fill-opacity="1" fill-rule="nonzero"/><path fill="#11324d" d="M 193.132812 199.625 L 193.15625 199.617188 C 193.75 199.40625 194.328125 199.269531 194.890625 199.203125 C 195.382812 199.167969 195.640625 199.261719 195.660156 199.484375 L 195.660156 199.546875 L 195.609375 199.976562 L 195.507812 200.390625 C 195.417969 200.660156 195.308594 200.921875 195.167969 201.179688 C 195.03125 201.433594 194.878906 201.6875 194.707031 201.933594 L 193.660156 203.410156 L 193.417969 203.785156 C 193.171875 204.191406 193.03125 204.476562 192.996094 204.644531 C 192.855469 205.050781 192.816406 205.394531 192.875 205.679688 C 192.902344 205.761719 192.949219 205.820312 193.015625 205.851562 L 193.132812 205.875 L 193.554688 205.8125 L 193.925781 205.664062 C 194.160156 205.539062 194.375 205.375 194.574219 205.167969 L 194.859375 204.835938 C 195.039062 204.601562 195.210938 204.34375 195.363281 204.066406 C 195.519531 203.785156 195.667969 203.503906 195.804688 203.214844 L 196.386719 201.976562 C 196.851562 201.085938 197.179688 200.425781 197.367188 199.992188 C 197.484375 199.71875 197.582031 199.441406 197.660156 199.164062 L 197.753906 198.753906 L 197.800781 198.351562 L 197.789062 197.953125 C 197.699219 197.328125 197.488281 196.941406 197.160156 196.792969 C 196.988281 196.710938 196.792969 196.667969 196.570312 196.667969 L 196.25 196.695312 C 196.027344 196.726562 195.796875 196.789062 195.558594 196.878906 C 194.808594 197.175781 194.171875 197.613281 193.644531 198.191406 C 193.484375 198.378906 193.351562 198.566406 193.253906 198.753906 L 193.136719 199.039062 C 193.105469 199.15625 193.101562 199.351562 193.132812 199.625 " fill-opacity="1" fill-rule="nonzero"/><path fill="#11324d" d="M 164.511719 187.679688 L 164.53125 187.683594 C 164.707031 187.722656 164.824219 187.742188 164.882812 187.742188 C 165.179688 187.734375 165.488281 187.746094 165.8125 187.777344 C 166.214844 187.835938 166.445312 187.882812 166.507812 187.914062 C 166.839844 188.046875 167.015625 188.136719 167.03125 188.191406 C 167.117188 188.273438 167.171875 188.367188 167.195312 188.476562 L 167.199219 188.652344 L 167.132812 188.933594 L 167.011719 189.203125 L 166.84375 189.460938 C 166.714844 189.628906 166.558594 189.785156 166.382812 189.925781 C 165.816406 190.367188 165.179688 190.636719 164.46875 190.726562 C 163.867188 190.777344 163.417969 190.695312 163.121094 190.488281 L 162.722656 190.15625 L 162.433594 189.75 L 162.238281 189.277344 L 162.132812 188.753906 L 162.097656 188.183594 L 162.128906 187.589844 L 162.214844 186.972656 C 162.289062 186.554688 162.382812 186.144531 162.5 185.734375 C 162.527344 185.582031 162.738281 184.933594 163.128906 183.796875 L 163.183594 183.535156 L 163.363281 182.414062 L 163.425781 182.152344 C 163.507812 181.808594 163.675781 181.574219 163.921875 181.449219 C 164.097656 181.402344 164.207031 181.382812 164.242188 181.394531 L 164.597656 181.472656 L 164.8125 181.699219 L 164.910156 182.046875 L 164.910156 182.496094 C 164.878906 182.828125 164.816406 183.203125 164.714844 183.617188 C 164.457031 184.679688 164.3125 185.320312 164.277344 185.535156 L 164.183594 186.152344 L 164.152344 186.726562 L 164.210938 187.230469 L 164.226562 187.277344 C 164.285156 187.40625 164.378906 187.539062 164.511719 187.679688 " fill-opacity="1" fill-rule="nonzero"/><path fill="#11324d" d="M 179.148438 180.527344 L 179.167969 180.53125 C 179.34375 180.570312 179.460938 180.59375 179.523438 180.59375 C 179.816406 180.585938 180.128906 180.597656 180.449219 180.628906 C 180.851562 180.6875 181.082031 180.730469 181.148438 180.765625 C 181.476562 180.894531 181.652344 180.988281 181.667969 181.042969 C 181.753906 181.121094 181.808594 181.21875 181.832031 181.324219 L 181.835938 181.5 C 181.820312 181.628906 181.792969 181.757812 181.753906 181.886719 C 181.75 181.953125 181.671875 182.140625 181.527344 182.449219 C 181.394531 182.691406 181.234375 182.910156 181.042969 183.105469 C 180.632812 183.5 180.175781 183.71875 179.671875 183.757812 C 178.203125 183.832031 177.273438 183.289062 176.878906 182.128906 L 176.769531 181.601562 L 176.738281 181.035156 L 176.765625 180.4375 L 176.851562 179.820312 C 176.925781 179.40625 177.019531 178.992188 177.136719 178.582031 C 177.164062 178.429688 177.375 177.785156 177.765625 176.648438 L 177.820312 176.386719 L 178 175.261719 L 178.0625 175.003906 C 178.148438 174.660156 178.3125 174.425781 178.558594 174.300781 C 178.734375 174.25 178.84375 174.230469 178.878906 174.242188 L 179.238281 174.324219 L 179.453125 174.546875 L 179.546875 174.894531 L 179.550781 175.34375 C 179.519531 175.679688 179.453125 176.050781 179.355469 176.464844 C 179.097656 177.527344 178.949219 178.167969 178.914062 178.386719 L 178.820312 179.003906 L 178.792969 179.574219 L 178.851562 180.082031 L 178.863281 180.125 C 178.921875 180.253906 179.019531 180.390625 179.148438 180.527344 " fill-opacity="1" fill-rule="nonzero"/><path fill="#11324d" d="M 146.4375 173.074219 L 146.457031 173.085938 L 146.773438 173.238281 C 147.152344 173.332031 147.503906 173.449219 147.835938 173.585938 C 148.253906 173.777344 148.488281 173.90625 148.539062 173.964844 C 148.671875 174.0625 148.777344 174.167969 148.855469 174.277344 L 148.9375 174.453125 L 148.964844 174.636719 L 148.917969 174.832031 C 148.859375 175.035156 148.664062 175.328125 148.332031 175.71875 C 148.128906 175.929688 147.902344 176.109375 147.65625 176.25 C 147.15625 176.535156 146.628906 176.628906 146.070312 176.535156 C 145.332031 176.40625 144.714844 176.082031 144.222656 175.5625 L 143.90625 175.113281 L 143.722656 174.613281 L 143.660156 174.074219 L 143.695312 173.503906 L 143.824219 172.914062 C 143.9375 172.511719 144.089844 172.109375 144.28125 171.703125 C 144.476562 171.296875 144.691406 170.902344 144.925781 170.515625 C 145 170.363281 145.394531 169.765625 146.109375 168.71875 L 146.234375 168.480469 L 146.707031 167.433594 L 146.835938 167.191406 C 147.007812 166.863281 147.21875 166.652344 147.476562 166.550781 C 147.695312 166.488281 147.925781 166.523438 148.160156 166.664062 L 148.347656 166.894531 L 148.410156 167.207031 L 148.367188 167.589844 C 148.300781 167.871094 148.191406 168.175781 148.035156 168.507812 L 147.789062 169.011719 L 146.964844 170.539062 C 146.789062 170.867188 146.644531 171.160156 146.539062 171.425781 C 146.417969 171.75 146.382812 172.300781 146.4375 173.074219 " fill-opacity="1" fill-rule="nonzero"/><path fill="#11324d" d="M 151.199219 151.679688 L 151.222656 151.691406 C 151.390625 151.777344 151.527344 151.832031 151.628906 151.855469 C 151.671875 151.882812 152.015625 151.917969 152.667969 151.960938 C 152.765625 151.972656 152.863281 151.988281 152.957031 152.011719 C 153.183594 152.085938 153.3125 152.144531 153.347656 152.183594 C 153.53125 152.308594 153.660156 152.492188 153.742188 152.722656 C 153.816406 152.992188 153.832031 153.175781 153.789062 153.285156 C 153.542969 153.925781 153.179688 154.414062 152.703125 154.738281 C 152.464844 154.910156 152.210938 155.039062 151.941406 155.121094 C 151.726562 155.179688 151.507812 155.210938 151.28125 155.210938 C 150.773438 155.238281 150.175781 155.050781 149.496094 154.648438 C 149.21875 154.441406 149.0625 154.3125 149.027344 154.257812 L 148.699219 153.808594 L 148.5 153.308594 L 148.417969 152.765625 L 148.441406 152.191406 L 148.550781 151.589844 L 148.738281 150.972656 C 148.886719 150.554688 149.066406 150.144531 149.273438 149.734375 C 149.484375 149.324219 149.707031 148.929688 149.941406 148.550781 L 150.75 147.277344 L 150.871094 147.03125 L 151.324219 145.949219 C 151.402344 145.773438 151.488281 145.617188 151.582031 145.476562 C 151.675781 145.335938 151.78125 145.222656 151.898438 145.140625 L 152.085938 145.042969 C 152.253906 144.992188 152.410156 145 152.5625 145.066406 C 152.863281 145.261719 152.929688 145.753906 152.765625 146.542969 C 152.742188 146.699219 152.644531 146.992188 152.472656 147.414062 C 152.398438 147.589844 152.320312 147.761719 152.238281 147.933594 C 151.800781 148.785156 151.546875 149.300781 151.472656 149.476562 C 151.3125 149.84375 151.183594 150.183594 151.085938 150.496094 C 151 150.753906 150.972656 151.007812 151 151.253906 C 151.023438 151.425781 151.089844 151.566406 151.199219 151.679688 " fill-opacity="1" fill-rule="nonzero"/><path fill="#11324d" d="M 139.789062 139.976562 L 139.8125 139.984375 C 139.96875 140.074219 140.097656 140.132812 140.195312 140.160156 C 140.234375 140.1875 140.566406 140.230469 141.191406 140.292969 C 141.285156 140.308594 141.375 140.328125 141.464844 140.351562 C 141.679688 140.429688 141.804688 140.488281 141.835938 140.527344 C 142.003906 140.660156 142.125 140.835938 142.195312 141.0625 C 142.257812 141.320312 142.265625 141.5 142.222656 141.601562 C 142.078125 142.03125 141.773438 142.445312 141.300781 142.835938 C 140.828125 143.199219 140.339844 143.375 139.835938 143.371094 C 139.5625 143.367188 139.289062 143.324219 139.015625 143.242188 C 138.882812 143.203125 138.75 143.152344 138.621094 143.09375 C 138.304688 142.933594 138.125 142.828125 138.074219 142.78125 C 137.804688 142.566406 137.652344 142.433594 137.621094 142.378906 L 137.316406 141.9375 L 137.144531 141.453125 L 137.082031 140.925781 L 137.125 140.375 L 137.25 139.800781 L 137.449219 139.214844 C 137.605469 138.820312 137.792969 138.429688 138.007812 138.042969 C 138.222656 137.65625 138.449219 137.285156 138.683594 136.929688 L 139.5 135.738281 L 139.625 135.507812 L 140.089844 134.496094 C 140.171875 134.328125 140.257812 134.179688 140.351562 134.046875 C 140.683594 133.632812 141.003906 133.507812 141.316406 133.675781 C 141.597656 133.871094 141.648438 134.34375 141.460938 135.097656 C 141.433594 135.246094 141.332031 135.523438 141.152344 135.921875 C 141.074219 136.089844 140.996094 136.253906 140.910156 136.414062 C 140.464844 137.21875 140.203125 137.703125 140.125 137.871094 C 139.960938 138.214844 139.824219 138.539062 139.722656 138.835938 C 139.628906 139.082031 139.59375 139.324219 139.609375 139.558594 C 139.628906 139.726562 139.6875 139.863281 139.789062 139.976562 " fill-opacity="1" fill-rule="nonzero"/><path fill="#11324d" d="M 148.859375 125.945312 L 148.878906 125.957031 C 149.03125 126.050781 149.152344 126.113281 149.246094 126.144531 C 149.28125 126.171875 149.601562 126.230469 150.207031 126.316406 L 150.472656 126.386719 C 150.675781 126.472656 150.796875 126.539062 150.824219 126.578125 C 150.984375 126.710938 151.09375 126.886719 151.152344 127.113281 C 151.199219 127.367188 151.199219 127.542969 151.152344 127.636719 C 150.875 128.21875 150.5 128.644531 150.027344 128.910156 C 149.792969 129.054688 149.546875 129.152344 149.289062 129.210938 C 149.074219 129.253906 148.863281 129.265625 148.652344 129.246094 C 148.078125 129.183594 147.554688 128.972656 147.085938 128.617188 C 146.820312 128.386719 146.671875 128.246094 146.640625 128.1875 L 146.363281 127.746094 L 146.21875 127.265625 L 146.183594 126.75 L 146.246094 126.214844 L 146.394531 125.664062 L 146.617188 125.101562 C 146.785156 124.726562 146.984375 124.355469 147.210938 123.988281 C 147.4375 123.621094 147.671875 123.269531 147.917969 122.933594 C 148.097656 122.6875 148.402344 122.289062 148.832031 121.742188 L 150.035156 120.085938 C 150.203125 119.835938 150.398438 119.769531 150.625 119.882812 C 150.890625 120.085938 150.917969 120.550781 150.703125 121.273438 C 150.671875 121.417969 150.558594 121.683594 150.367188 122.0625 C 150.285156 122.222656 150.199219 122.378906 150.105469 122.53125 L 149.277344 123.914062 C 149.101562 124.242188 148.957031 124.550781 148.84375 124.835938 C 148.742188 125.070312 148.695312 125.300781 148.703125 125.535156 C 148.710938 125.695312 148.765625 125.832031 148.859375 125.945312 " fill-opacity="1" fill-rule="nonzero"/><path fill="#11324d" d="M 181.695312 128.675781 L 181.714844 128.6875 C 181.882812 128.773438 182.019531 128.828125 182.121094 128.855469 C 182.164062 128.878906 182.511719 128.914062 183.160156 128.957031 C 183.257812 128.96875 183.355469 128.984375 183.449219 129.007812 C 183.675781 129.082031 183.804688 129.140625 183.84375 129.179688 C 184.023438 129.308594 184.15625 129.488281 184.238281 129.722656 C 184.308594 129.988281 184.324219 130.175781 184.28125 130.28125 C 184.035156 130.925781 183.671875 131.410156 183.195312 131.734375 C 182.957031 131.90625 182.703125 132.035156 182.433594 132.117188 C 182.222656 132.179688 182 132.207031 181.773438 132.207031 C 181.265625 132.234375 180.667969 132.046875 179.988281 131.644531 C 179.710938 131.4375 179.554688 131.308594 179.519531 131.253906 L 179.191406 130.808594 L 178.992188 130.308594 L 178.910156 129.765625 L 178.933594 129.1875 L 179.042969 128.585938 L 179.230469 127.96875 C 179.378906 127.554688 179.558594 127.140625 179.769531 126.730469 C 179.976562 126.320312 180.199219 125.925781 180.433594 125.546875 C 180.601562 125.265625 180.890625 124.816406 181.304688 124.199219 C 181.898438 123.203125 182.28125 122.578125 182.449219 122.324219 C 182.625 122.039062 182.824219 121.953125 183.054688 122.0625 C 183.355469 122.257812 183.425781 122.75 183.257812 123.539062 C 183.234375 123.699219 183.136719 123.988281 182.964844 124.410156 C 182.890625 124.585938 182.8125 124.757812 182.730469 124.929688 C 182.292969 125.785156 182.039062 126.296875 181.964844 126.472656 C 181.808594 126.839844 181.679688 127.179688 181.582031 127.496094 C 181.496094 127.753906 181.464844 128.003906 181.492188 128.25 C 181.515625 128.421875 181.582031 128.5625 181.695312 128.675781 " fill-opacity="1" fill-rule="nonzero"/><path fill="#11324d" d="M 195.714844 132.988281 L 195.738281 133 C 195.90625 133.085938 196.042969 133.140625 196.144531 133.167969 C 196.183594 133.191406 196.53125 133.226562 197.183594 133.269531 C 197.28125 133.28125 197.375 133.296875 197.46875 133.320312 C 197.695312 133.394531 197.828125 133.453125 197.863281 133.492188 C 198.042969 133.621094 198.175781 133.800781 198.257812 134.035156 C 198.332031 134.300781 198.34375 134.488281 198.304688 134.59375 C 198.058594 135.238281 197.695312 135.722656 197.214844 136.046875 C 196.976562 136.21875 196.722656 136.347656 196.453125 136.429688 C 196.242188 136.492188 196.023438 136.519531 195.792969 136.519531 C 195.285156 136.546875 194.691406 136.359375 194.011719 135.957031 C 193.734375 135.75 193.578125 135.621094 193.542969 135.566406 L 193.210938 135.117188 L 193.011719 134.621094 L 192.933594 134.078125 L 192.953125 133.5 L 193.066406 132.898438 L 193.25 132.28125 C 193.398438 131.867188 193.578125 131.453125 193.789062 131.042969 C 194 130.632812 194.222656 130.238281 194.453125 129.859375 C 194.625 129.578125 194.914062 129.128906 195.324219 128.511719 C 195.917969 127.515625 196.300781 126.890625 196.472656 126.636719 C 196.644531 126.351562 196.847656 126.265625 197.074219 126.375 C 197.378906 126.570312 197.445312 127.0625 197.28125 127.851562 C 197.257812 128.011719 197.160156 128.300781 196.988281 128.722656 C 196.914062 128.898438 196.835938 129.070312 196.75 129.242188 C 196.316406 130.097656 196.0625 130.609375 195.988281 130.785156 C 195.828125 131.152344 195.699219 131.492188 195.601562 131.808594 C 195.515625 132.066406 195.488281 132.316406 195.511719 132.5625 C 195.535156 132.734375 195.605469 132.875 195.714844 132.988281 " fill-opacity="1" fill-rule="nonzero"/><path fill="#11324d" d="M 197.878906 155.550781 L 197.898438 155.5625 C 198.066406 155.648438 198.203125 155.703125 198.304688 155.730469 C 198.347656 155.753906 198.695312 155.789062 199.34375 155.832031 C 199.441406 155.84375 199.539062 155.859375 199.632812 155.882812 C 199.859375 155.957031 199.988281 156.015625 200.027344 156.054688 C 200.207031 156.183594 200.339844 156.363281 200.421875 156.597656 C 200.492188 156.863281 200.507812 157.050781 200.464844 157.15625 C 200.21875 157.800781 199.855469 158.285156 199.378906 158.609375 C 199.140625 158.78125 198.886719 158.910156 198.617188 158.992188 C 198.40625 159.054688 198.183594 159.082031 197.957031 159.082031 C 197.449219 159.109375 196.851562 158.921875 196.171875 158.519531 C 195.894531 158.3125 195.738281 158.183594 195.703125 158.128906 L 195.375 157.683594 L 195.175781 157.183594 L 195.09375 156.640625 L 195.117188 156.0625 L 195.226562 155.460938 L 195.414062 154.84375 C 195.5625 154.429688 195.742188 154.015625 195.953125 153.605469 C 196.160156 153.195312 196.382812 152.800781 196.617188 152.421875 L 197.425781 151.152344 L 197.546875 150.90625 L 198 149.824219 C 198.078125 149.648438 198.164062 149.488281 198.257812 149.347656 C 198.351562 149.207031 198.457031 149.09375 198.574219 149.011719 L 198.761719 148.917969 C 198.929688 148.867188 199.085938 148.875 199.238281 148.9375 C 199.539062 149.132812 199.609375 149.625 199.441406 150.414062 C 199.417969 150.574219 199.320312 150.863281 199.148438 151.285156 C 199.128906 151.378906 198.832031 151.980469 198.269531 153.089844 C 198.070312 153.523438 197.960938 153.785156 197.933594 153.878906 C 197.820312 154.210938 197.800781 154.765625 197.878906 155.550781 " fill-opacity="1" fill-rule="nonzero"/><path fill="#11324d" d="M 185.421875 151.679688 L 185.441406 151.691406 C 185.609375 151.777344 185.746094 151.835938 185.847656 151.859375 C 185.890625 151.882812 186.238281 151.917969 186.886719 151.960938 C 186.988281 151.972656 187.082031 151.992188 187.175781 152.015625 C 187.402344 152.089844 187.535156 152.144531 187.570312 152.183594 C 187.75 152.3125 187.882812 152.492188 187.964844 152.726562 C 188.035156 152.992188 188.050781 153.179688 188.011719 153.285156 C 187.761719 153.929688 187.398438 154.414062 186.921875 154.738281 C 186.683594 154.914062 186.429688 155.039062 186.160156 155.121094 C 185.949219 155.183594 185.726562 155.214844 185.5 155.214844 C 184.992188 155.242188 184.398438 155.050781 183.714844 154.648438 C 183.441406 154.445312 183.285156 154.3125 183.246094 154.257812 L 182.917969 153.8125 L 182.71875 153.3125 L 182.636719 152.769531 L 182.660156 152.191406 L 182.769531 151.589844 L 182.957031 150.972656 C 183.105469 150.558594 183.285156 150.144531 183.496094 149.734375 C 183.707031 149.324219 183.925781 148.929688 184.160156 148.550781 L 184.96875 147.28125 L 185.089844 147.035156 L 185.542969 145.953125 C 185.621094 145.777344 185.710938 145.617188 185.800781 145.476562 C 185.894531 145.335938 186 145.226562 186.117188 145.140625 L 186.304688 145.046875 C 186.472656 144.996094 186.628906 145.003906 186.78125 145.070312 C 187.082031 145.261719 187.152344 145.753906 186.984375 146.542969 C 186.960938 146.703125 186.863281 146.992188 186.695312 147.414062 C 186.621094 147.589844 186.539062 147.765625 186.457031 147.9375 C 186.023438 148.789062 185.765625 149.304688 185.691406 149.480469 C 185.535156 149.84375 185.40625 150.183594 185.308594 150.5 C 185.222656 150.757812 185.191406 151.007812 185.21875 151.253906 C 185.242188 151.425781 185.308594 151.570312 185.421875 151.679688 " fill-opacity="1" fill-rule="nonzero"/><path fill="#11324d" d="M 205.582031 133.554688 L 205.601562 133.566406 C 205.769531 133.652344 205.90625 133.707031 206.007812 133.730469 C 206.050781 133.757812 206.398438 133.792969 207.046875 133.835938 C 207.144531 133.847656 207.242188 133.863281 207.335938 133.886719 C 207.5625 133.960938 207.691406 134.019531 207.730469 134.058594 C 207.910156 134.1875 208.042969 134.367188 208.125 134.597656 C 208.195312 134.867188 208.210938 135.054688 208.171875 135.160156 C 207.921875 135.800781 207.558594 136.289062 207.082031 136.613281 C 206.84375 136.785156 206.589844 136.914062 206.320312 136.996094 C 206.109375 137.054688 205.886719 137.085938 205.660156 137.085938 C 205.152344 137.113281 204.558594 136.925781 203.875 136.523438 C 203.597656 136.316406 203.441406 136.1875 203.40625 136.132812 L 203.078125 135.683594 L 202.878906 135.183594 L 202.796875 134.640625 L 202.820312 134.066406 L 202.929688 133.464844 L 203.117188 132.847656 C 203.265625 132.429688 203.445312 132.019531 203.65625 131.609375 C 203.863281 131.199219 204.085938 130.804688 204.320312 130.425781 C 204.488281 130.144531 204.78125 129.695312 205.191406 129.078125 C 205.785156 128.078125 206.167969 127.453125 206.335938 127.199219 C 206.511719 126.917969 206.710938 126.832031 206.941406 126.941406 C 207.242188 127.136719 207.3125 127.628906 207.144531 128.417969 C 207.121094 128.574219 207.023438 128.867188 206.855469 129.289062 C 206.777344 129.464844 206.699219 129.636719 206.617188 129.808594 C 206.179688 130.660156 205.925781 131.175781 205.851562 131.351562 C 205.695312 131.71875 205.566406 132.058594 205.46875 132.371094 C 205.382812 132.628906 205.351562 132.882812 205.378906 133.128906 C 205.402344 133.300781 205.46875 133.441406 205.582031 133.554688 " fill-opacity="1" fill-rule="nonzero"/><path fill="#11324d" d="M 158.867188 136.429688 C 160.21875 136.433594 161.160156 136.636719 161.6875 137.046875 C 162.007812 137.277344 162.320312 137.582031 162.617188 137.964844 L 164.320312 140.292969 C 164.566406 140.617188 164.804688 140.886719 165.039062 141.109375 C 165.421875 141.496094 165.820312 141.632812 166.238281 141.515625 C 166.457031 141.449219 166.726562 141.289062 167.042969 141.039062 C 167.152344 139.925781 167.207031 139.015625 167.207031 138.3125 C 167.222656 137.742188 167.132812 136.714844 166.9375 135.230469 C 166.90625 134.949219 166.929688 134.6875 167.007812 134.449219 C 167.167969 134.160156 167.4375 134.078125 167.816406 134.203125 C 167.980469 134.246094 168.171875 134.34375 168.394531 134.496094 L 169.347656 135.289062 C 169.484375 135.363281 169.621094 135.375 169.757812 135.316406 C 169.890625 135.261719 170.058594 135.136719 170.253906 134.933594 C 170.386719 134.140625 170.453125 133.542969 170.457031 133.132812 C 170.496094 132.113281 170.171875 131.304688 169.480469 130.707031 C 168.800781 130.128906 168.027344 129.941406 167.167969 130.148438 C 166.746094 130.265625 166.390625 130.476562 166.105469 130.777344 C 165.882812 130.992188 165.640625 131.367188 165.378906 131.902344 L 165.125 132.449219 C 165.15625 133.488281 165.132812 134.179688 165.058594 134.527344 C 164.992188 134.914062 164.871094 135.152344 164.703125 135.246094 C 164.59375 135.292969 164.476562 135.265625 164.355469 135.164062 C 163.636719 134.390625 163.175781 133.957031 162.96875 133.867188 C 162.582031 133.625 162.140625 133.433594 161.648438 133.292969 C 160.269531 132.898438 159.191406 132.964844 158.414062 133.488281 C 157.742188 134.105469 157.441406 134.714844 157.507812 135.328125 C 157.550781 135.597656 157.6875 135.808594 157.917969 135.964844 C 158.097656 136.105469 158.414062 136.257812 158.867188 136.429688 " fill-opacity="1" fill-rule="nonzero"/><g clip-path="url(#28a7f35e1f)"><path fill="#11324d" d="M 174.859375 204.839844 L 174.882812 204.839844 C 175.023438 204.851562 175.144531 204.855469 175.253906 204.851562 C 175.585938 204.792969 175.914062 204.757812 176.238281 204.742188 C 176.503906 204.734375 176.746094 204.742188 176.960938 204.773438 C 177.4375 204.820312 177.726562 205.003906 177.839844 205.320312 L 177.855469 205.453125 L 177.824219 205.789062 L 177.722656 206.121094 L 177.558594 206.445312 C 177.425781 206.660156 177.265625 206.859375 177.070312 207.050781 L 176.765625 207.320312 C 176.550781 207.488281 176.320312 207.640625 176.070312 207.769531 C 175.824219 207.894531 175.574219 207.996094 175.316406 208.066406 C 174.726562 208.222656 174.226562 208.207031 173.824219 208.027344 L 173.351562 207.738281 L 172.980469 207.355469 L 172.703125 206.882812 L 172.507812 206.34375 L 172.382812 205.746094 L 172.324219 205.109375 L 172.316406 204.445312 C 172.332031 203.992188 172.367188 203.542969 172.425781 203.089844 C 172.433594 202.921875 172.554688 202.207031 172.792969 200.941406 L 172.8125 200.65625 L 172.828125 199.4375 L 172.855469 199.15625 C 172.878906 198.972656 172.921875 198.808594 172.984375 198.664062 L 173.105469 198.476562 L 173.269531 198.332031 C 173.402344 198.257812 173.5625 198.214844 173.753906 198.210938 L 174.085938 198.300781 L 174.308594 198.542969 L 174.4375 198.921875 L 174.488281 199.410156 L 174.480469 199.984375 C 174.480469 200.164062 174.425781 200.832031 174.316406 201.984375 C 174.277344 202.449219 174.265625 202.890625 174.277344 203.3125 L 174.335938 203.902344 L 174.472656 204.410156 C 174.519531 204.519531 174.648438 204.664062 174.859375 204.839844 " fill-opacity="1" fill-rule="nonzero"/></g><g clip-path="url(#b52d40ba18)"><path fill="#11324d" d="M 135.113281 158.394531 L 135.089844 158.378906 C 134.914062 158.265625 134.773438 158.1875 134.664062 158.144531 C 134.621094 158.113281 134.242188 158.035156 133.53125 157.90625 L 133.222656 157.8125 C 132.980469 157.703125 132.84375 157.625 132.808594 157.578125 C 132.625 157.414062 132.503906 157.199219 132.441406 156.933594 C 132.394531 156.628906 132.402344 156.421875 132.460938 156.3125 C 132.660156 155.828125 133.050781 155.382812 133.628906 154.972656 C 134.191406 154.59375 134.78125 154.4375 135.402344 154.492188 C 136.101562 154.570312 136.730469 154.835938 137.292969 155.289062 C 137.609375 155.574219 137.785156 155.753906 137.820312 155.824219 L 138.128906 156.359375 L 138.285156 156.933594 L 138.308594 157.539062 L 138.214844 158.171875 L 138.015625 158.820312 L 137.738281 159.476562 C 137.523438 159.914062 137.273438 160.347656 136.992188 160.773438 C 136.710938 161.199219 136.417969 161.605469 136.113281 161.992188 L 135.074219 163.285156 C 134.96875 163.445312 134.863281 163.617188 134.761719 163.800781 L 134.300781 164.636719 C 134.199219 164.816406 134.085938 164.976562 133.972656 165.125 C 133.59375 165.589844 133.203125 165.714844 132.804688 165.503906 C 132.496094 165.253906 132.480469 164.703125 132.757812 163.855469 C 132.804688 163.683594 132.949219 163.375 133.1875 162.933594 C 133.289062 162.75 133.398438 162.566406 133.511719 162.390625 C 134.097656 161.503906 134.4375 160.96875 134.542969 160.785156 C 134.761719 160.402344 134.945312 160.042969 135.089844 159.710938 C 135.21875 159.4375 135.28125 159.164062 135.28125 158.890625 C 135.277344 158.699219 135.222656 158.53125 135.113281 158.394531 " fill-opacity="1" fill-rule="nonzero"/></g><path fill="#11324d" d="M 160.34375 117.617188 L 159.9375 117.773438 C 157.140625 118.816406 155.691406 119.640625 155.585938 120.246094 C 155.226562 121.753906 155.140625 122.859375 155.335938 123.570312 C 155.527344 124.074219 156.011719 124.21875 156.785156 124.007812 C 157.105469 123.875 157.292969 123.699219 157.351562 123.476562 C 157.394531 123.449219 157.417969 123.113281 157.417969 122.472656 C 157.5 122.101562 157.585938 121.867188 157.675781 121.769531 C 158.148438 121.144531 158.746094 120.664062 159.46875 120.320312 C 159.972656 120.007812 161.367188 119.4375 163.652344 118.613281 C 164.511719 118.292969 167.886719 117.207031 173.785156 115.363281 C 175.644531 114.742188 176.847656 114.316406 177.382812 114.085938 C 179.847656 113.054688 181.285156 112.148438 181.703125 111.375 C 181.976562 110.851562 181.367188 110.816406 179.875 111.265625 C 179.230469 111.453125 178.164062 111.8125 176.671875 112.34375 L 160.34375 117.617188 " fill-opacity="1" fill-rule="nonzero"/><path fill="#11324d" d="M 158.644531 179.285156 L 158.46875 179.386719 C 157.816406 179.753906 157.316406 180.136719 156.96875 180.542969 C 156.425781 181.25 156.15625 181.804688 156.160156 182.214844 C 156.144531 182.550781 156.347656 182.6875 156.765625 182.632812 C 157.199219 182.515625 157.519531 182.390625 157.734375 182.265625 L 158.675781 181.757812 C 159.371094 181.347656 160.089844 180.898438 160.832031 180.402344 C 160.898438 180.371094 162.242188 179.453125 164.867188 177.644531 C 165.265625 177.375 165.738281 177.078125 166.277344 176.761719 C 166.535156 176.589844 166.683594 176.484375 166.734375 176.4375 C 167.402344 175.886719 167.769531 175.25 167.839844 174.527344 C 167.808594 173.976562 167.257812 173.992188 166.199219 174.5625 C 165.28125 175.042969 163.75 176.027344 161.597656 177.511719 L 158.644531 179.285156 " fill-opacity="1" fill-rule="nonzero"/><path fill="#11324d" d="M 179.894531 162.304688 L 179.90625 162.304688 C 180.136719 162.363281 180.203125 162.417969 180.292969 162.640625 C 180.382812 162.863281 180.402344 162.894531 180.394531 163.191406 C 180.390625 163.265625 180.363281 163.652344 180.347656 163.746094 C 180.332031 163.839844 180.367188 163.589844 180.34375 163.753906 C 180.324219 163.917969 180.292969 164.046875 180.214844 164.171875 C 180.109375 164.335938 179.949219 164.433594 179.738281 164.429688 C 179.582031 164.425781 179.472656 164.375 179.402344 164.335938 C 179.339844 164.304688 179.28125 164.246094 179.226562 164.15625 C 179.1875 164.097656 179.148438 163.992188 179.125 163.832031 C 179.09375 163.628906 179.097656 163.460938 179.109375 163.328125 C 179.140625 162.996094 179.21875 162.746094 179.351562 162.582031 C 179.5 162.394531 179.679688 162.304688 179.894531 162.304688 M 180.21875 160.828125 L 180.113281 160.832031 C 178.984375 161.101562 178.207031 161.703125 177.808594 162.652344 C 177.675781 162.972656 177.691406 163.203125 177.714844 163.496094 C 177.738281 163.789062 178.023438 164.074219 178.332031 164.90625 C 178.386719 165.046875 178.460938 165.207031 178.472656 165.316406 C 178.5 165.53125 178.25 165.6875 177.695312 166.355469 C 177.34375 166.78125 176.894531 167.210938 176.894531 167.210938 C 175.066406 168.914062 173.925781 169.867188 173.269531 170.433594 C 172.125 171.421875 171.367188 171.953125 170.972656 172 C 170.417969 172.71875 170.039062 173.324219 169.851562 173.820312 C 169.6875 174.261719 169.597656 174.523438 169.605469 174.605469 C 169.625 174.828125 169.707031 174.925781 169.824219 174.90625 C 170.511719 174.804688 172.265625 173.5 175.121094 171.023438 C 178.039062 168.492188 179.742188 166.8125 180.1875 165.941406 C 181.046875 166.195312 181.539062 166.15625 181.742188 165.871094 C 181.929688 165.605469 182.066406 165.246094 182.011719 164.734375 C 181.996094 164.566406 181.972656 164.441406 181.863281 164.324219 C 181.683594 164.136719 181.457031 164.050781 181.261719 164.050781 C 181.523438 163.070312 181.359375 162.285156 181.140625 161.589844 C 180.996094 161.136719 180.714844 160.878906 180.21875 160.828125 Z M 180.21875 160.828125 " fill-opacity="1" fill-rule="nonzero"/><path fill="#11324d" d="M 179.894531 162.304688 L 179.90625 162.304688 C 180.136719 162.363281 180.203125 162.417969 180.292969 162.640625 C 180.382812 162.863281 180.402344 162.894531 180.394531 163.191406 C 180.390625 163.265625 180.363281 163.652344 180.347656 163.746094 C 180.332031 163.839844 180.367188 163.589844 180.34375 163.753906 C 180.324219 163.917969 180.292969 164.046875 180.214844 164.171875 C 180.109375 164.335938 179.949219 164.433594 179.738281 164.429688 C 179.582031 164.425781 179.472656 164.375 179.402344 164.335938 C 179.339844 164.304688 179.28125 164.246094 179.226562 164.15625 C 179.1875 164.097656 179.148438 163.992188 179.125 163.832031 C 179.09375 163.628906 179.097656 163.460938 179.109375 163.328125 C 179.140625 162.996094 179.21875 162.746094 179.351562 162.582031 C 179.5 162.394531 179.679688 162.304688 179.894531 162.304688 M 180.21875 160.828125 L 180.113281 160.832031 C 178.984375 161.101562 178.207031 161.703125 177.808594 162.652344 C 177.675781 162.972656 177.691406 163.203125 177.714844 163.496094 C 177.738281 163.789062 178.023438 164.074219 178.332031 164.90625 C 178.386719 165.046875 178.460938 165.207031 178.472656 165.316406 C 178.5 165.53125 178.25 165.6875 177.695312 166.355469 C 177.34375 166.78125 176.894531 167.210938 176.894531 167.210938 C 175.066406 168.914062 173.925781 169.867188 173.269531 170.433594 C 172.125 171.421875 171.367188 171.953125 170.972656 172 C 170.417969 172.71875 170.039062 173.324219 169.851562 173.820312 C 169.6875 174.261719 169.597656 174.523438 169.605469 174.605469 C 169.625 174.828125 169.707031 174.925781 169.824219 174.90625 C 170.511719 174.804688 172.265625 173.5 175.121094 171.023438 C 178.039062 168.492188 179.742188 166.8125 180.1875 165.941406 C 181.046875 166.195312 181.539062 166.15625 181.742188 165.871094 C 181.929688 165.605469 182.066406 165.246094 182.011719 164.734375 C 181.996094 164.566406 181.972656 164.441406 181.863281 164.324219 C 181.683594 164.136719 181.457031 164.050781 181.261719 164.050781 C 181.523438 163.070312 181.359375 162.285156 181.140625 161.589844 C 180.996094 161.136719 180.714844 160.878906 180.21875 160.828125 Z M 180.21875 160.828125 " fill-opacity="1" fill-rule="nonzero"/><path fill="#11324d" d="M 214.714844 142.058594 L 214.726562 142.058594 C 214.960938 142.117188 215.027344 142.171875 215.113281 142.394531 C 215.203125 142.617188 215.222656 142.648438 215.214844 142.945312 C 215.214844 143.019531 215.183594 143.410156 215.167969 143.5 C 215.15625 143.59375 215.1875 143.34375 215.167969 143.507812 C 215.144531 143.671875 215.117188 143.800781 215.035156 143.925781 C 214.929688 144.089844 214.769531 144.1875 214.558594 144.183594 C 214.402344 144.179688 214.292969 144.128906 214.222656 144.089844 C 214.164062 144.058594 214.101562 144.003906 214.046875 143.914062 C 214.007812 143.851562 213.96875 143.746094 213.945312 143.585938 C 213.917969 143.382812 213.917969 143.214844 213.929688 143.082031 C 213.960938 142.75 214.042969 142.5 214.171875 142.335938 C 214.320312 142.152344 214.5 142.058594 214.714844 142.058594 M 215.039062 140.585938 L 214.9375 140.589844 C 213.808594 140.855469 213.027344 141.457031 212.632812 142.40625 C 212.5 142.726562 212.511719 142.957031 212.535156 143.25 C 212.558594 143.542969 212.847656 143.832031 213.152344 144.660156 C 213.207031 144.804688 213.28125 144.960938 213.292969 145.070312 C 213.320312 145.285156 213.070312 145.441406 212.515625 146.109375 C 212.164062 146.535156 211.714844 146.964844 211.714844 146.964844 C 209.890625 148.667969 208.746094 149.621094 208.089844 150.1875 C 206.945312 151.179688 206.1875 151.707031 205.792969 151.753906 C 205.238281 152.472656 204.863281 153.082031 204.675781 153.574219 C 204.507812 154.015625 204.417969 154.28125 204.425781 154.359375 C 204.445312 154.582031 204.527344 154.679688 204.648438 154.660156 C 205.332031 154.558594 207.085938 153.253906 209.941406 150.777344 C 212.859375 148.246094 214.5625 146.566406 215.011719 145.695312 C 215.867188 145.949219 216.359375 145.910156 216.5625 145.625 C 216.753906 145.359375 216.886719 145 216.832031 144.492188 C 216.816406 144.320312 216.792969 144.195312 216.683594 144.078125 C 216.503906 143.890625 216.277344 143.804688 216.082031 143.804688 C 216.34375 142.824219 216.179688 142.039062 215.960938 141.34375 C 215.816406 140.894531 215.535156 140.632812 215.039062 140.585938 Z M 215.039062 140.585938 " fill-opacity="1" fill-rule="nonzero"/><path fill="#11324d" d="M 146.117188 138.84375 L 146.128906 138.84375 C 146.386719 138.90625 146.460938 138.96875 146.558594 139.21875 C 146.660156 139.46875 146.679688 139.5 146.671875 139.828125 C 146.671875 139.914062 146.636719 140.347656 146.621094 140.449219 C 146.605469 140.550781 146.644531 140.277344 146.617188 140.457031 C 146.59375 140.640625 146.5625 140.78125 146.472656 140.921875 C 146.355469 141.105469 146.175781 141.214844 145.941406 141.207031 C 145.765625 141.203125 145.644531 141.148438 145.566406 141.105469 C 145.5 141.070312 145.433594 141.007812 145.371094 140.90625 C 145.332031 140.839844 145.285156 140.722656 145.261719 140.542969 C 145.226562 140.316406 145.230469 140.128906 145.242188 139.984375 C 145.277344 139.613281 145.367188 139.335938 145.515625 139.152344 C 145.675781 138.945312 145.878906 138.84375 146.117188 138.84375 M 146.476562 137.203125 L 146.363281 137.207031 C 145.105469 137.503906 144.238281 138.175781 143.796875 139.230469 C 143.648438 139.585938 143.664062 139.84375 143.691406 140.167969 C 143.714844 140.496094 144.035156 140.816406 144.378906 141.738281 C 144.4375 141.898438 144.519531 142.074219 144.535156 142.195312 C 144.5625 142.433594 144.285156 142.609375 143.667969 143.351562 C 143.273438 143.824219 142.777344 144.300781 142.777344 144.300781 C 140.742188 146.199219 139.46875 147.257812 138.738281 147.890625 C 137.464844 148.992188 136.621094 149.578125 136.183594 149.628906 C 135.566406 150.433594 135.144531 151.105469 134.933594 151.660156 C 134.75 152.148438 134.652344 152.441406 134.660156 152.53125 C 134.683594 152.78125 134.773438 152.886719 134.90625 152.867188 C 135.667969 152.753906 137.621094 151.300781 140.796875 148.546875 C 144.050781 145.730469 145.945312 143.863281 146.445312 142.894531 C 147.398438 143.175781 147.945312 143.132812 148.171875 142.8125 C 148.382812 142.519531 148.535156 142.117188 148.472656 141.550781 C 148.453125 141.359375 148.429688 141.222656 148.308594 141.09375 C 148.105469 140.886719 147.855469 140.789062 147.636719 140.789062 C 147.929688 139.695312 147.746094 138.820312 147.503906 138.046875 C 147.34375 137.546875 147.03125 137.257812 146.476562 137.203125 Z M 146.476562 137.203125 " fill-opacity="1" fill-rule="nonzero"/><g clip-path="url(#1f27cbe5c4)"><path fill="#11324d" d="M 187.585938 112.3125 L 187.59375 112.257812 C 187.664062 111.8125 187.742188 111.476562 187.839844 111.246094 C 187.855469 111.1875 187.941406 111.035156 188.105469 110.78125 C 188.246094 110.585938 188.40625 110.402344 188.585938 110.238281 C 188.835938 109.984375 189.359375 109.664062 190.152344 109.277344 C 190.582031 109.046875 191.019531 108.882812 191.46875 108.785156 C 191.800781 108.722656 192.132812 108.730469 192.46875 108.808594 C 192.910156 108.929688 193.175781 109.019531 193.261719 109.078125 C 193.433594 109.160156 193.601562 109.253906 193.757812 109.359375 C 194.4375 109.8125 194.765625 110.390625 194.738281 111.09375 L 194.636719 111.558594 L 194.421875 112.003906 L 194.105469 112.421875 L 193.699219 112.808594 L 193.222656 113.160156 L 192.6875 113.46875 L 192.113281 113.734375 L 191.515625 113.949219 L 190.902344 114.105469 L 190.296875 114.207031 C 189.878906 114.25 189.515625 114.25 189.214844 114.210938 C 188.972656 114.179688 188.800781 114.140625 188.699219 114.09375 C 188.625 114.042969 188.574219 113.957031 188.546875 113.84375 C 188.523438 113.730469 188.523438 113.621094 188.550781 113.519531 C 188.597656 113.40625 188.636719 113.351562 188.664062 113.351562 C 188.695312 113.320312 188.8125 113.269531 189.011719 113.195312 C 189.554688 113.054688 189.84375 112.972656 189.875 112.945312 C 190.058594 112.867188 190.175781 112.789062 190.230469 112.710938 C 190.347656 112.589844 190.410156 112.378906 190.421875 112.078125 C 190.398438 111.820312 190.308594 111.652344 190.152344 111.578125 C 189.96875 111.488281 189.722656 111.484375 189.421875 111.566406 C 189.226562 111.621094 189.03125 111.691406 188.835938 111.777344 L 188.082031 112.160156 C 187.984375 112.203125 187.820312 112.253906 187.585938 112.3125 " fill-opacity="1" fill-rule="nonzero"/></g><path fill="#11324d" d="M 200.5 171.121094 L 200.5 171.09375 C 200.484375 170.765625 200.558594 170.449219 200.714844 170.148438 C 200.910156 169.738281 201.175781 169.371094 201.511719 169.054688 C 201.621094 168.949219 201.734375 168.851562 201.855469 168.765625 L 202.042969 168.640625 L 202.230469 168.527344 L 203.082031 168.082031 C 203.515625 167.851562 203.960938 167.691406 204.421875 167.597656 C 205.101562 167.46875 205.820312 167.632812 206.582031 168.089844 C 207.328125 168.582031 207.683594 169.183594 207.648438 169.902344 L 207.550781 170.367188 L 207.335938 170.8125 L 207.015625 171.230469 L 206.609375 171.617188 L 206.132812 171.96875 L 205.601562 172.277344 L 205.027344 172.542969 L 204.425781 172.757812 L 203.816406 172.917969 L 203.210938 173.015625 C 202.761719 173.058594 202.429688 173.0625 202.207031 173.03125 C 201.984375 173.011719 201.785156 172.96875 201.613281 172.90625 C 201.539062 172.859375 201.488281 172.785156 201.453125 172.6875 C 201.394531 172.449219 201.410156 172.292969 201.503906 172.214844 C 201.601562 172.125 201.71875 172.039062 201.855469 171.957031 L 202.71875 171.484375 L 202.914062 171.363281 C 203.035156 171.28125 203.132812 171.195312 203.207031 171.101562 C 203.28125 171.007812 203.316406 170.90625 203.316406 170.796875 C 203.3125 170.628906 203.226562 170.496094 203.0625 170.398438 C 202.964844 170.351562 202.851562 170.332031 202.71875 170.332031 C 202.660156 170.3125 202.429688 170.351562 202.023438 170.457031 C 201.5625 170.597656 201.054688 170.816406 200.5 171.121094 " fill-opacity="1" fill-rule="nonzero"/><path fill="#11324d" d="M 201.738281 178.488281 L 201.769531 178.46875 C 202.476562 178.007812 202.851562 177.585938 202.886719 177.214844 C 202.503906 176.65625 201.878906 176.296875 201.007812 176.128906 C 200.347656 176 199.683594 176.054688 199.015625 176.289062 C 198.4375 176.523438 197.839844 176.945312 197.222656 177.558594 C 196.429688 178.4375 196.03125 179.285156 196.027344 180.097656 C 196.015625 180.683594 196.097656 181.144531 196.269531 181.476562 C 196.402344 181.726562 196.46875 181.832031 196.464844 181.792969 C 196.503906 181.824219 196.546875 181.851562 196.597656 181.875 C 196.871094 181.972656 197.015625 182.035156 197.03125 182.0625 C 197.089844 182.136719 197.105469 182.1875 197.082031 182.214844 C 197.011719 182.441406 196.886719 182.664062 196.707031 182.890625 C 196.417969 183.242188 195.886719 183.777344 195.113281 184.503906 L 194.867188 184.796875 C 194.71875 184.984375 194.640625 185.164062 194.628906 185.332031 L 194.683594 185.570312 C 194.882812 185.878906 195.121094 185.945312 195.402344 185.777344 L 195.605469 185.644531 L 196.289062 185.082031 C 197.550781 184.234375 198.234375 183.78125 198.335938 183.726562 C 199.304688 183.125 199.949219 182.785156 200.265625 182.699219 C 200.5625 182.621094 200.878906 182.566406 201.214844 182.535156 L 203.222656 182.398438 C 203.53125 182.359375 203.808594 182.289062 204.050781 182.1875 L 204.371094 181.992188 L 204.605469 181.71875 L 204.75 181.355469 C 204.777344 181.3125 204.78125 181.128906 204.765625 180.808594 C 204.695312 180.203125 204.457031 179.804688 204.050781 179.605469 C 203.765625 179.566406 203.359375 179.597656 202.824219 179.695312 C 202.707031 179.699219 201.894531 179.90625 200.382812 180.320312 C 200.253906 180.359375 199.917969 180.417969 199.371094 180.492188 C 198.910156 180.554688 198.621094 180.496094 198.492188 180.320312 L 198.382812 180.066406 C 198.359375 179.921875 198.386719 179.78125 198.460938 179.636719 C 198.621094 179.347656 198.898438 179.089844 199.289062 178.867188 C 199.679688 178.648438 200.085938 178.503906 200.5 178.445312 L 200.855469 178.425781 C 201.191406 178.5 201.488281 178.519531 201.738281 178.488281 " fill-opacity="1" fill-rule="nonzero"/><path fill="#11324d" d="M 223.351562 197.75 L 221.257812 197.890625 L 219.167969 198.03125 L 223.351562 197.75 " fill-opacity="1" fill-rule="nonzero"/><g clip-path="url(#0f21b59922)"><path fill="#11324d" d="M 183.046875 289.691406 L 183.050781 289.691406 L 310.128906 242.523438 C 323.875 237.421875 320.289062 238.753906 356.980469 225.136719 L 352.300781 213.679688 L 183.046875 276.171875 L 13.796875 213.679688 L 9.113281 225.136719 C 45.808594 238.753906 42.222656 237.421875 55.96875 242.523438 Z M 183.046875 289.691406 " fill-opacity="1" fill-rule="evenodd"/></g><path fill="#f8c91f" d="M 183.046875 266.539062 L 23.695312 207.703125 L 26.996094 198.640625 C 108.578125 226.589844 177.65625 193.511719 183.046875 266.539062 Z M 183.046875 266.539062 " fill-opacity="1" fill-rule="evenodd"/><path fill="#f8c91f" d="M 183.046875 266.539062 L 342.398438 207.703125 L 339.097656 198.640625 C 257.519531 226.589844 188.441406 193.511719 183.046875 266.539062 Z M 183.046875 266.539062 " fill-opacity="1" fill-rule="evenodd"/><g clip-path="url(#cefb2214d3)"><path fill="#11324d" d="M 32.765625 342.261719 L 165.992188 292.8125 L 61.191406 253.914062 L 57.28125 264.695312 C 101.660156 275.734375 78.457031 302.238281 44.824219 306.292969 Z M 32.765625 342.261719 " fill-opacity="1" fill-rule="evenodd"/></g><g clip-path="url(#02c6198c0f)"><path fill="#11324d" d="M 333.332031 342.261719 L 200.101562 292.8125 L 304.90625 253.914062 L 308.8125 264.695312 C 264.433594 275.734375 287.640625 302.238281 321.273438 306.292969 Z M 333.332031 342.261719 " fill-opacity="1" fill-rule="evenodd"/></g></svg>